<svg width="470" height="470" viewBox="0 0 470 470" fill="none" xmlns="http://www.w3.org/2000/svg">
<rect width="470" height="470" rx="80" fill="black"/>
<path d="M231 86C251.533 86 269.667 89.5998 285.4 96.7998C301.4 104 313.933 114.667 323 128.8C329.382 138.749 333.515 150.351 335.404 163.604L260.405 164.016C250.233 164.143 237.428 159.554 228.918 153.469C213.854 143.403 193.182 143.732 178.232 155.903C166.187 165.711 160.383 181.868 162.949 194.793L189.527 173.229L216.865 179.211L217.312 206.49L190.348 228.445C199.335 232.418 220.182 234.909 233.512 218.962C237.924 214.842 246.983 201.464 254.777 197.675C265.192 192.64 266.002 193.252 291.736 192.933L336.052 192.847C334.574 208.188 330.092 221.64 322.6 233.2C313.266 247.333 300.733 258 285 265.2L353 384H283.4L222.998 276H179V384H117V86H231Z" fill="white"/>
</svg>
