<svg width="1459" height="504" viewBox="0 0 1459 504" fill="none" xmlns="http://www.w3.org/2000/svg">
<path d="M363.2 419.8C340 419.8 319.867 414.733 302.8 404.6C285.733 394.2 272.533 380.333 263.2 363C253.867 345.667 249.2 326.467 249.2 305.4C249.2 283.533 254 264.067 263.6 247C273.467 229.933 286.667 216.467 303.2 206.6C319.733 196.733 338.4 191.8 359.2 191.8C376.533 191.8 391.867 194.6 405.2 200.2C418.533 205.533 429.733 213.133 438.8 223C448.133 232.867 455.2 244.333 460 257.4C464.8 270.2 467.2 284.2 467.2 299.4C467.2 303.667 466.933 307.933 466.4 312.2C466.133 316.2 465.467 319.667 464.4 322.6H300.8V278.6H430.4L402 299.4C404.667 287.933 404.533 277.8 401.6 269C398.667 259.933 393.467 252.867 386 247.8C378.8 242.467 369.867 239.8 359.2 239.8C348.8 239.8 339.867 242.333 332.4 247.4C324.933 252.467 319.333 259.933 315.6 269.8C311.867 279.667 310.4 291.667 311.2 305.8C310.133 318.067 311.6 328.867 315.6 338.2C319.6 347.533 325.733 354.867 334 360.2C342.267 365.267 352.267 367.8 364 367.8C374.667 367.8 383.733 365.667 391.2 361.4C398.933 357.133 404.933 351.267 409.2 343.8L457.2 366.6C452.933 377.267 446.133 386.6 436.8 394.6C427.733 402.6 416.933 408.867 404.4 413.4C391.867 417.667 378.133 419.8 363.2 419.8ZM502.531 415V112.2H562.531V415H502.531ZM640.438 503C634.038 503 627.771 502.467 621.638 501.4C615.771 500.333 610.571 498.6 606.038 496.2V447C609.771 448.067 614.171 449 619.238 449.8C624.304 450.6 628.971 451 633.238 451C644.971 451 653.371 448.2 658.438 442.6C663.504 437.267 667.638 431.133 670.838 424.2L685.638 390.2L684.838 440.2L588.838 196.6H653.238L716.838 369.8H692.838L756.438 196.6H820.838L727.238 435.4C721.371 450.333 714.171 462.867 705.638 473C697.104 483.133 687.371 490.6 676.438 495.4C665.771 500.467 653.771 503 640.438 503ZM906.85 419.8C891.117 419.8 877.517 417.267 866.05 412.2C854.583 407.133 845.783 399.933 839.65 390.6C833.517 381 830.45 369.667 830.45 356.6C830.45 344.333 833.25 333.533 838.85 324.2C844.45 314.6 852.983 306.6 864.45 300.2C876.183 293.8 890.717 289.267 908.05 286.6L974.85 275.8V319.8L918.85 329.8C910.317 331.4 903.783 334.2 899.25 338.2C894.717 341.933 892.45 347.4 892.45 354.6C892.45 361.267 894.983 366.467 900.05 370.2C905.117 373.933 911.383 375.8 918.85 375.8C928.717 375.8 937.383 373.667 944.85 369.4C952.317 365.133 958.05 359.4 962.05 352.2C966.317 344.733 968.45 336.6 968.45 327.8V271C968.45 262.733 965.117 255.8 958.45 250.2C952.05 244.6 943.25 241.8 932.05 241.8C921.383 241.8 911.917 244.733 903.65 250.6C895.65 256.467 889.783 264.2 886.05 273.8L838.05 251C842.317 238.733 849.117 228.2 858.45 219.4C867.783 210.6 878.983 203.8 892.05 199C905.117 194.2 919.383 191.8 934.85 191.8C953.25 191.8 969.517 195.133 983.65 201.8C997.783 208.467 1008.72 217.8 1016.45 229.8C1024.45 241.533 1028.45 255.267 1028.45 271V415H972.45V379.8L986.05 377.4C979.65 387 972.583 395 964.85 401.4C957.117 407.533 948.45 412.067 938.85 415C929.25 418.2 918.583 419.8 906.85 419.8ZM1072.45 415V196.6H1128.45V239.8L1125.25 230.2C1130.32 217.133 1138.45 207.533 1149.65 201.4C1161.12 195 1174.45 191.8 1189.65 191.8C1206.19 191.8 1220.59 195.267 1232.85 202.2C1245.39 209.133 1255.12 218.867 1262.05 231.4C1268.99 243.667 1272.45 258.067 1272.45 274.6V415H1212.45V287.4C1212.45 278.867 1210.72 271.533 1207.25 265.4C1204.05 259.267 1199.39 254.467 1193.25 251C1187.39 247.533 1180.45 245.8 1172.45 245.8C1164.72 245.8 1157.79 247.533 1151.65 251C1145.52 254.467 1140.72 259.267 1137.25 265.4C1134.05 271.533 1132.45 278.867 1132.45 287.4V415H1072.45ZM1417.11 417.4C1390.71 417.4 1370.17 410.333 1355.51 396.2C1341.11 381.8 1333.91 361.8 1333.91 336.2V248.6H1297.11V196.6H1299.11C1310.31 196.6 1318.84 193.8 1324.71 188.2C1330.84 182.6 1333.91 174.2 1333.91 163V147H1393.91V196.6H1445.11V248.6H1393.91V332.2C1393.91 339.667 1395.24 345.933 1397.91 351C1400.57 355.8 1404.71 359.4 1410.31 361.8C1415.91 364.2 1422.84 365.4 1431.11 365.4C1432.97 365.4 1435.11 365.267 1437.51 365C1439.91 364.733 1442.44 364.467 1445.11 364.2V415C1441.11 415.533 1436.57 416.067 1431.51 416.6C1426.44 417.133 1421.64 417.4 1417.11 417.4Z" fill="white"/>
<path d="M114 117C134.533 117 152.667 120.6 168.4 127.8C184.4 135 196.933 145.667 206 159.8C212.39 169.761 216.525 181.379 218.411 194.652L151.874 195.016C141.623 195.143 128.719 190.553 120.144 184.469C104.963 174.403 84.1312 174.732 69.0664 186.903C56.9277 196.711 51.0793 212.868 53.665 225.793L80.4482 204.229L107.998 210.211L108.448 237.49L81.2744 259.445C90.3311 263.418 111.34 265.909 124.772 249.962C129.219 245.842 138.348 232.464 146.203 228.675C156.698 223.64 157.514 224.252 183.447 223.933L219.05 223.864C217.571 239.198 213.09 252.644 205.6 264.2C196.266 278.333 183.733 289 168 296.2L236 415H166.4L105.998 307H62V415H0V117H114Z" fill="white"/>
</svg>
